<mxfile host="app.diagrams.net" agent="Mozilla/5.0 (Windows NT 10.0; Win64; x64) AppleWebKit/537.36 (KHTML, like Gecko) Chrome/138.0.0.0 Safari/537.36" version="28.0.9">
  <diagram name="Page-1" id="krQprm13-YxPNkKEMA0_">
    <mxGraphModel dx="1665" dy="811" grid="1" gridSize="10" guides="1" tooltips="1" connect="1" arrows="1" fold="1" page="1" pageScale="1" pageWidth="827" pageHeight="1169" math="0" shadow="0">
      <root>
        <mxCell id="0" />
        <mxCell id="1" parent="0" />
        <mxCell id="e4FXfcteedhUWSGe1tuC-1" value="" style="rounded=0;whiteSpace=wrap;html=1;fillColor=none;" parent="1" vertex="1">
          <mxGeometry x="70" y="78" width="110" height="212" as="geometry" />
        </mxCell>
        <mxCell id="e4FXfcteedhUWSGe1tuC-2" style="edgeStyle=orthogonalEdgeStyle;rounded=0;orthogonalLoop=1;jettySize=auto;html=1;" parent="1" source="e4FXfcteedhUWSGe1tuC-4" target="e4FXfcteedhUWSGe1tuC-28" edge="1">
          <mxGeometry relative="1" as="geometry">
            <mxPoint x="291" y="222.5" as="targetPoint" />
          </mxGeometry>
        </mxCell>
        <mxCell id="e4FXfcteedhUWSGe1tuC-3" value="Dados Artificiais" style="edgeLabel;html=1;align=center;verticalAlign=middle;resizable=0;points=[];" parent="e4FXfcteedhUWSGe1tuC-2" connectable="0" vertex="1">
          <mxGeometry x="-0.1783" y="1" relative="1" as="geometry">
            <mxPoint x="16" y="1" as="offset" />
          </mxGeometry>
        </mxCell>
        <mxCell id="e4FXfcteedhUWSGe1tuC-4" value="Kinesis&amp;nbsp;&lt;div&gt;Data Generator&lt;/div&gt;" style="outlineConnect=0;dashed=0;verticalLabelPosition=bottom;verticalAlign=top;align=center;html=1;shape=mxgraph.aws3.kinesis_enabled_app;fillColor=#F58534;gradientColor=none;aspect=fixed;" parent="1" vertex="1">
          <mxGeometry x="110" y="200" width="45.39" height="47.5" as="geometry" />
        </mxCell>
        <mxCell id="e4FXfcteedhUWSGe1tuC-5" style="edgeStyle=orthogonalEdgeStyle;rounded=0;orthogonalLoop=1;jettySize=auto;html=1;entryX=0.5;entryY=0;entryDx=0;entryDy=0;entryPerimeter=0;" parent="1" source="e4FXfcteedhUWSGe1tuC-6" target="e4FXfcteedhUWSGe1tuC-4" edge="1">
          <mxGeometry relative="1" as="geometry" />
        </mxCell>
        <mxCell id="e4FXfcteedhUWSGe1tuC-6" value="Cognito&lt;div&gt;User&lt;/div&gt;" style="sketch=0;points=[[0,0,0],[0.25,0,0],[0.5,0,0],[0.75,0,0],[1,0,0],[0,1,0],[0.25,1,0],[0.5,1,0],[0.75,1,0],[1,1,0],[0,0.25,0],[0,0.5,0],[0,0.75,0],[1,0.25,0],[1,0.5,0],[1,0.75,0]];outlineConnect=0;fontColor=#000000;fillColor=#DD344C;strokeColor=#ffffff;dashed=0;verticalLabelPosition=bottom;verticalAlign=top;align=center;html=1;fontSize=12;fontStyle=0;aspect=fixed;shape=mxgraph.aws4.resourceIcon;resIcon=mxgraph.aws4.cognito;labelBackgroundColor=default;" parent="1" vertex="1">
          <mxGeometry x="118.69" y="110" width="28" height="28" as="geometry" />
        </mxCell>
        <mxCell id="e4FXfcteedhUWSGe1tuC-7" value="AWS Cloud" style="points=[[0,0],[0.25,0],[0.5,0],[0.75,0],[1,0],[1,0.25],[1,0.5],[1,0.75],[1,1],[0.75,1],[0.5,1],[0.25,1],[0,1],[0,0.75],[0,0.5],[0,0.25]];outlineConnect=0;gradientColor=none;html=1;whiteSpace=wrap;fontSize=12;fontStyle=0;container=0;pointerEvents=0;collapsible=0;recursiveResize=0;shape=mxgraph.aws4.group;grIcon=mxgraph.aws4.group_aws_cloud_alt;strokeColor=#232F3E;fillColor=none;verticalAlign=top;align=left;spacingLeft=30;fontColor=#232F3E;dashed=0;" parent="1" vertex="1">
          <mxGeometry x="30" y="40" width="763" height="363" as="geometry" />
        </mxCell>
        <mxCell id="e4FXfcteedhUWSGe1tuC-8" style="edgeStyle=orthogonalEdgeStyle;rounded=0;orthogonalLoop=1;jettySize=auto;html=1;" parent="1" source="e4FXfcteedhUWSGe1tuC-25" target="e4FXfcteedhUWSGe1tuC-13" edge="1">
          <mxGeometry relative="1" as="geometry">
            <Array as="points">
              <mxPoint x="465" y="120" />
            </Array>
          </mxGeometry>
        </mxCell>
        <mxCell id="e4FXfcteedhUWSGe1tuC-9" value="Amazon S3&lt;div&gt;(processed)&lt;/div&gt;" style="sketch=0;points=[[0,0,0],[0.25,0,0],[0.5,0,0],[0.75,0,0],[1,0,0],[0,1,0],[0.25,1,0],[0.5,1,0],[0.75,1,0],[1,1,0],[0,0.25,0],[0,0.5,0],[0,0.75,0],[1,0.25,0],[1,0.5,0],[1,0.75,0]];outlineConnect=0;fontColor=#000000;fillColor=#7AA116;strokeColor=#ffffff;dashed=0;verticalLabelPosition=bottom;verticalAlign=top;align=center;html=1;fontSize=12;fontStyle=0;aspect=fixed;shape=mxgraph.aws4.resourceIcon;resIcon=mxgraph.aws4.s3;" parent="1" vertex="1">
          <mxGeometry x="570" y="197.38" width="50.13" height="50.13" as="geometry" />
        </mxCell>
        <mxCell id="e4FXfcteedhUWSGe1tuC-10" style="edgeStyle=orthogonalEdgeStyle;rounded=0;orthogonalLoop=1;jettySize=auto;html=1;entryX=0;entryY=0.5;entryDx=0;entryDy=0;entryPerimeter=0;" parent="1" source="e4FXfcteedhUWSGe1tuC-25" target="e4FXfcteedhUWSGe1tuC-9" edge="1">
          <mxGeometry relative="1" as="geometry" />
        </mxCell>
        <mxCell id="e4FXfcteedhUWSGe1tuC-11" value="Armazena" style="edgeLabel;html=1;align=center;verticalAlign=middle;resizable=0;points=[];" parent="e4FXfcteedhUWSGe1tuC-10" connectable="0" vertex="1">
          <mxGeometry x="-0.1262" y="-1" relative="1" as="geometry">
            <mxPoint y="-1" as="offset" />
          </mxGeometry>
        </mxCell>
        <mxCell id="e4FXfcteedhUWSGe1tuC-12" style="edgeStyle=orthogonalEdgeStyle;rounded=0;orthogonalLoop=1;jettySize=auto;html=1;dashed=1;" parent="1" source="e4FXfcteedhUWSGe1tuC-13" target="e4FXfcteedhUWSGe1tuC-9" edge="1">
          <mxGeometry relative="1" as="geometry" />
        </mxCell>
        <mxCell id="e4FXfcteedhUWSGe1tuC-13" value="Glue Catalog&lt;div&gt;Database&lt;/div&gt;" style="sketch=0;outlineConnect=0;fontColor=#000000;gradientColor=none;fillColor=#8C4FFF;strokeColor=none;dashed=0;verticalLabelPosition=bottom;verticalAlign=top;align=center;html=1;fontSize=12;fontStyle=0;aspect=fixed;pointerEvents=1;shape=mxgraph.aws4.glue_data_catalog;" parent="1" vertex="1">
          <mxGeometry x="577" y="100" width="35.08" height="38" as="geometry" />
        </mxCell>
        <mxCell id="e4FXfcteedhUWSGe1tuC-14" style="edgeStyle=orthogonalEdgeStyle;rounded=0;orthogonalLoop=1;jettySize=auto;html=1;" parent="1" source="e4FXfcteedhUWSGe1tuC-16" target="e4FXfcteedhUWSGe1tuC-13" edge="1">
          <mxGeometry relative="1" as="geometry">
            <Array as="points">
              <mxPoint x="725" y="119" />
            </Array>
          </mxGeometry>
        </mxCell>
        <mxCell id="e4FXfcteedhUWSGe1tuC-15" value="Consulta&lt;div&gt;via SQL&lt;/div&gt;" style="edgeLabel;html=1;align=center;verticalAlign=middle;resizable=0;points=[];" parent="e4FXfcteedhUWSGe1tuC-14" connectable="0" vertex="1">
          <mxGeometry x="0.384" y="-2" relative="1" as="geometry">
            <mxPoint x="19" y="2" as="offset" />
          </mxGeometry>
        </mxCell>
        <mxCell id="e4FXfcteedhUWSGe1tuC-16" value="Athena" style="sketch=0;points=[[0,0,0],[0.25,0,0],[0.5,0,0],[0.75,0,0],[1,0,0],[0,1,0],[0.25,1,0],[0.5,1,0],[0.75,1,0],[1,1,0],[0,0.25,0],[0,0.5,0],[0,0.75,0],[1,0.25,0],[1,0.5,0],[1,0.75,0]];outlineConnect=0;fontColor=#000000;fillColor=#8C4FFF;strokeColor=#ffffff;dashed=0;verticalLabelPosition=bottom;verticalAlign=top;align=center;html=1;fontSize=12;fontStyle=0;aspect=fixed;shape=mxgraph.aws4.resourceIcon;resIcon=mxgraph.aws4.athena;" parent="1" vertex="1">
          <mxGeometry x="711" y="93.93" width="50.13" height="50.13" as="geometry" />
        </mxCell>
        <mxCell id="e4FXfcteedhUWSGe1tuC-17" value="Cloud&#xa;Formation" style="shape=image;verticalLabelPosition=bottom;labelBackgroundColor=default;verticalAlign=top;aspect=fixed;imageAspect=0;image=https://cloud-icons.onemodel.app/aws/Architecture-Service-Icons_01312023/Arch_Management-Governance/64/Arch_AWS-CloudFormation_64@5x.png;" parent="1" vertex="1">
          <mxGeometry x="61" y="72" width="30" height="30" as="geometry" />
        </mxCell>
        <mxCell id="e4FXfcteedhUWSGe1tuC-18" style="edgeStyle=orthogonalEdgeStyle;rounded=0;orthogonalLoop=1;jettySize=auto;html=1;" parent="1" source="e4FXfcteedhUWSGe1tuC-20" target="e4FXfcteedhUWSGe1tuC-16" edge="1">
          <mxGeometry relative="1" as="geometry" />
        </mxCell>
        <mxCell id="e4FXfcteedhUWSGe1tuC-19" value="Dashboars" style="edgeLabel;html=1;align=center;verticalAlign=middle;resizable=0;points=[];" parent="e4FXfcteedhUWSGe1tuC-18" connectable="0" vertex="1">
          <mxGeometry x="-0.1933" y="1" relative="1" as="geometry">
            <mxPoint as="offset" />
          </mxGeometry>
        </mxCell>
        <mxCell id="e4FXfcteedhUWSGe1tuC-20" value="Quick&lt;div&gt;Sight&lt;/div&gt;" style="sketch=0;points=[[0,0,0],[0.25,0,0],[0.5,0,0],[0.75,0,0],[1,0,0],[0,1,0],[0.25,1,0],[0.5,1,0],[0.75,1,0],[1,1,0],[0,0.25,0],[0,0.5,0],[0,0.75,0],[1,0.25,0],[1,0.5,0],[1,0.75,0]];outlineConnect=0;fontColor=#232F3E;fillColor=#8C4FFF;strokeColor=#ffffff;dashed=0;verticalLabelPosition=bottom;verticalAlign=top;align=center;html=1;fontSize=12;fontStyle=0;aspect=fixed;shape=mxgraph.aws4.resourceIcon;resIcon=mxgraph.aws4.quicksight;" parent="1" vertex="1">
          <mxGeometry x="711" y="211" width="50.13" height="50.13" as="geometry" />
        </mxCell>
        <mxCell id="e4FXfcteedhUWSGe1tuC-21" value="Cloud Watch" style="sketch=0;points=[[0,0,0],[0.25,0,0],[0.5,0,0],[0.75,0,0],[1,0,0],[0,1,0],[0.25,1,0],[0.5,1,0],[0.75,1,0],[1,1,0],[0,0.25,0],[0,0.5,0],[0,0.75,0],[1,0.25,0],[1,0.5,0],[1,0.75,0]];points=[[0,0,0],[0.25,0,0],[0.5,0,0],[0.75,0,0],[1,0,0],[0,1,0],[0.25,1,0],[0.5,1,0],[0.75,1,0],[1,1,0],[0,0.25,0],[0,0.5,0],[0,0.75,0],[1,0.25,0],[1,0.5,0],[1,0.75,0]];outlineConnect=0;fontColor=#232F3E;fillColor=#E7157B;strokeColor=#ffffff;dashed=0;verticalLabelPosition=bottom;verticalAlign=top;align=center;html=1;fontSize=12;fontStyle=0;aspect=fixed;shape=mxgraph.aws4.resourceIcon;resIcon=mxgraph.aws4.cloudwatch_2;" parent="1" vertex="1">
          <mxGeometry x="50" y="330" width="39" height="39" as="geometry" />
        </mxCell>
        <mxCell id="e4FXfcteedhUWSGe1tuC-22" style="edgeStyle=orthogonalEdgeStyle;rounded=0;orthogonalLoop=1;jettySize=auto;html=1;" parent="1" source="e4FXfcteedhUWSGe1tuC-23" target="e4FXfcteedhUWSGe1tuC-26" edge="1">
          <mxGeometry relative="1" as="geometry" />
        </mxCell>
        <mxCell id="e4FXfcteedhUWSGe1tuC-23" value="Lambda&lt;div&gt;&lt;br&gt;&lt;/div&gt;" style="sketch=0;points=[[0,0,0],[0.25,0,0],[0.5,0,0],[0.75,0,0],[1,0,0],[0,1,0],[0.25,1,0],[0.5,1,0],[0.75,1,0],[1,1,0],[0,0.25,0],[0,0.5,0],[0,0.75,0],[1,0.25,0],[1,0.5,0],[1,0.75,0]];outlineConnect=0;fontColor=#232F3E;fillColor=#ED7100;strokeColor=#ffffff;dashed=0;verticalLabelPosition=bottom;verticalAlign=top;align=center;html=1;fontSize=12;fontStyle=0;aspect=fixed;shape=mxgraph.aws4.resourceIcon;resIcon=mxgraph.aws4.lambda;" parent="1" vertex="1">
          <mxGeometry x="442.07" y="305.01" width="46" height="46" as="geometry" />
        </mxCell>
        <mxCell id="e4FXfcteedhUWSGe1tuC-24" style="edgeStyle=orthogonalEdgeStyle;rounded=0;orthogonalLoop=1;jettySize=auto;html=1;" parent="1" source="e4FXfcteedhUWSGe1tuC-28" target="e4FXfcteedhUWSGe1tuC-26" edge="1">
          <mxGeometry relative="1" as="geometry">
            <mxPoint x="316.06500000000005" y="247.51" as="sourcePoint" />
          </mxGeometry>
        </mxCell>
        <mxCell id="e4FXfcteedhUWSGe1tuC-25" value="AWS Glue Job" style="sketch=0;points=[[0,0,0],[0.25,0,0],[0.5,0,0],[0.75,0,0],[1,0,0],[0,1,0],[0.25,1,0],[0.5,1,0],[0.75,1,0],[1,1,0],[0,0.25,0],[0,0.5,0],[0,0.75,0],[1,0.25,0],[1,0.5,0],[1,0.75,0]];outlineConnect=0;fontColor=#000000;fillColor=#8C4FFF;strokeColor=#ffffff;dashed=0;verticalLabelPosition=bottom;verticalAlign=top;align=center;html=1;fontSize=12;fontStyle=0;aspect=fixed;shape=mxgraph.aws4.resourceIcon;resIcon=mxgraph.aws4.glue;labelBackgroundColor=default;" parent="1" vertex="1">
          <mxGeometry x="440" y="197.69" width="50.13" height="50.13" as="geometry" />
        </mxCell>
        <mxCell id="e4FXfcteedhUWSGe1tuC-26" value="Amazon S3&lt;div&gt;(raw)&lt;/div&gt;" style="sketch=0;points=[[0,0,0],[0.25,0,0],[0.5,0,0],[0.75,0,0],[1,0,0],[0,1,0],[0.25,1,0],[0.5,1,0],[0.75,1,0],[1,1,0],[0,0.25,0],[0,0.5,0],[0,0.75,0],[1,0.25,0],[1,0.5,0],[1,0.75,0]];outlineConnect=0;fontColor=#000000;fillColor=#7AA116;strokeColor=#ffffff;dashed=0;verticalLabelPosition=bottom;verticalAlign=top;align=center;html=1;fontSize=12;fontStyle=0;aspect=fixed;shape=mxgraph.aws4.resourceIcon;resIcon=mxgraph.aws4.s3;" parent="1" vertex="1">
          <mxGeometry x="290" y="302.94" width="50.13" height="50.13" as="geometry" />
        </mxCell>
        <mxCell id="e4FXfcteedhUWSGe1tuC-27" style="edgeStyle=orthogonalEdgeStyle;rounded=0;orthogonalLoop=1;jettySize=auto;html=1;entryX=0.5;entryY=1;entryDx=0;entryDy=0;entryPerimeter=0;" parent="1" source="e4FXfcteedhUWSGe1tuC-23" target="e4FXfcteedhUWSGe1tuC-25" edge="1">
          <mxGeometry relative="1" as="geometry" />
        </mxCell>
        <mxCell id="e4FXfcteedhUWSGe1tuC-28" value="Kinesis&lt;div&gt;Firehose&lt;/div&gt;" style="sketch=0;points=[[0,0,0],[0.25,0,0],[0.5,0,0],[0.75,0,0],[1,0,0],[0,1,0],[0.25,1,0],[0.5,1,0],[0.75,1,0],[1,1,0],[0,0.25,0],[0,0.5,0],[0,0.75,0],[1,0.25,0],[1,0.5,0],[1,0.75,0]];outlineConnect=0;fontColor=#232F3E;fillColor=#8C4FFF;strokeColor=#ffffff;dashed=0;verticalLabelPosition=bottom;verticalAlign=top;align=center;html=1;fontSize=12;fontStyle=0;aspect=fixed;shape=mxgraph.aws4.resourceIcon;resIcon=mxgraph.aws4.kinesis_data_firehose;" parent="1" vertex="1">
          <mxGeometry x="291" y="200" width="48" height="48" as="geometry" />
        </mxCell>
      </root>
    </mxGraphModel>
  </diagram>
</mxfile>
